<svg height="430" viewBox="0 0 760 430" width="760" xmlns="http://www.w3.org/2000/svg">
	<text fill="#111827" font-family="Arial, sans-serif" font-size="20.0" font-weight="700" text-anchor="middle" x="380.0" y="30.0">Exercise Log - Working Weight</text>
	<text fill="#111827" font-family="Arial, sans-serif" font-size="13.0" text-anchor="middle" x="380.0" y="414.0">Workout</text>
	<text fill="#111827" font-family="Arial, sans-serif" font-size="13.0" text-anchor="middle" transform="rotate(-90 18 215)" x="18.0" y="215.0">Weight (lb)</text>
	<line stroke="#374151" stroke-width="1.2" x1="72.0" x2="732.0" y1="364.0" y2="364.0" />
	<line stroke="#374151" stroke-width="1.2" x1="72.0" x2="72.0" y1="54.0" y2="364.0" />
	<line stroke="#e5e7eb" stroke-width="1" x1="72.0" x2="72.0" y1="54.0" y2="364.0" />
	<line stroke="#374151" stroke-width="1" x1="72.0" x2="72.0" y1="364.0" y2="369.0" />
	<text class="x-tick" fill="#111827" font-family="Arial, sans-serif" font-size="11.0" text-anchor="middle" x="72.0" y="385.0">0.9</text>
	<line stroke="#e5e7eb" stroke-width="1" x1="237.0" x2="237.0" y1="54.0" y2="364.0" />
	<line stroke="#374151" stroke-width="1" x1="237.0" x2="237.0" y1="364.0" y2="369.0" />
	<text class="x-tick" fill="#111827" font-family="Arial, sans-serif" font-size="11.0" text-anchor="middle" x="237.0" y="385.0">2.0</text>
	<line stroke="#e5e7eb" stroke-width="1" x1="402.0" x2="402.0" y1="54.0" y2="364.0" />
	<line stroke="#374151" stroke-width="1" x1="402.0" x2="402.0" y1="364.0" y2="369.0" />
	<text class="x-tick" fill="#111827" font-family="Arial, sans-serif" font-size="11.0" text-anchor="middle" x="402.0" y="385.0">3.0</text>
	<line stroke="#e5e7eb" stroke-width="1" x1="567.0" x2="567.0" y1="54.0" y2="364.0" />
	<line stroke="#374151" stroke-width="1" x1="567.0" x2="567.0" y1="364.0" y2="369.0" />
	<text class="x-tick" fill="#111827" font-family="Arial, sans-serif" font-size="11.0" text-anchor="middle" x="567.0" y="385.0">4.0</text>
	<line stroke="#e5e7eb" stroke-width="1" x1="732.0" x2="732.0" y1="54.0" y2="364.0" />
	<line stroke="#374151" stroke-width="1" x1="732.0" x2="732.0" y1="364.0" y2="369.0" />
	<text class="x-tick" fill="#111827" font-family="Arial, sans-serif" font-size="11.0" text-anchor="middle" x="732.0" y="385.0">5.1</text>
	<line stroke="#e5e7eb" stroke-width="1" x1="72.0" x2="732.0" y1="364.0" y2="364.0" />
	<line stroke="#374151" stroke-width="1" x1="67.0" x2="72.0" y1="364.0" y2="364.0" />
	<text class="y-tick" fill="#111827" font-family="Arial, sans-serif" font-size="11.0" text-anchor="end" x="62.0" y="368.0">122</text>
	<line stroke="#e5e7eb" stroke-width="1" x1="72.0" x2="732.0" y1="286.5" y2="286.5" />
	<line stroke="#374151" stroke-width="1" x1="67.0" x2="72.0" y1="286.5" y2="286.5" />
	<text class="y-tick" fill="#111827" font-family="Arial, sans-serif" font-size="11.0" text-anchor="end" x="62.0" y="290.5">169</text>
	<line stroke="#e5e7eb" stroke-width="1" x1="72.0" x2="732.0" y1="209.0" y2="209.0" />
	<line stroke="#374151" stroke-width="1" x1="67.0" x2="72.0" y1="209.0" y2="209.0" />
	<text class="y-tick" fill="#111827" font-family="Arial, sans-serif" font-size="11.0" text-anchor="end" x="62.0" y="213.0">215</text>
	<line stroke="#e5e7eb" stroke-width="1" x1="72.0" x2="732.0" y1="131.5" y2="131.5" />
	<line stroke="#374151" stroke-width="1" x1="67.0" x2="72.0" y1="131.5" y2="131.5" />
	<text class="y-tick" fill="#111827" font-family="Arial, sans-serif" font-size="11.0" text-anchor="end" x="62.0" y="135.5">261</text>
	<line stroke="#e5e7eb" stroke-width="1" x1="72.0" x2="732.0" y1="54.0" y2="54.0" />
	<line stroke="#374151" stroke-width="1" x1="67.0" x2="72.0" y1="54.0" y2="54.0" />
	<text class="y-tick" fill="#111827" font-family="Arial, sans-serif" font-size="11.0" text-anchor="end" x="62.0" y="58.0">308</text>
	<path class="line-series" d="M 84.692308 259.107759 L 243.346154 242.405172 L 402.000000 225.702586 L 560.653846 209.000000 L 719.307692 192.297414" fill="none" stroke="#2563eb" stroke-width="2.4" />
	<circle class="line-marker" cx="84.7" cy="259.1" fill="#2563eb" r="3.2" />
	<circle class="line-marker" cx="243.3" cy="242.4" fill="#2563eb" r="3.2" />
	<circle class="line-marker" cx="402.0" cy="225.7" fill="#2563eb" r="3.2" />
	<circle class="line-marker" cx="560.7" cy="209.0" fill="#2563eb" r="3.2" />
	<circle class="line-marker" cx="719.3" cy="192.3" fill="#2563eb" r="3.2" />
	<path class="line-series" d="M 84.692308 342.620690 L 243.346154 334.269397 L 402.000000 325.918103 L 560.653846 317.566810 L 719.307692 309.215517" fill="none" stroke="#dc2626" stroke-width="2.4" />
	<circle class="line-marker" cx="84.7" cy="342.6" fill="#dc2626" r="3.2" />
	<circle class="line-marker" cx="243.3" cy="334.3" fill="#dc2626" r="3.2" />
	<circle class="line-marker" cx="402.0" cy="325.9" fill="#dc2626" r="3.2" />
	<circle class="line-marker" cx="560.7" cy="317.6" fill="#dc2626" r="3.2" />
	<circle class="line-marker" cx="719.3" cy="309.2" fill="#dc2626" r="3.2" />
	<path class="line-series" d="M 84.692308 192.297414 L 243.346154 158.892241 L 402.000000 142.189655 L 560.653846 108.784483 L 719.307692 75.379310" fill="none" stroke="#059669" stroke-width="2.4" />
	<circle class="line-marker" cx="84.7" cy="192.3" fill="#059669" r="3.2" />
	<circle class="line-marker" cx="243.3" cy="158.9" fill="#059669" r="3.2" />
	<circle class="line-marker" cx="402.0" cy="142.2" fill="#059669" r="3.2" />
	<circle class="line-marker" cx="560.7" cy="108.8" fill="#059669" r="3.2" />
	<circle class="line-marker" cx="719.3" cy="75.4" fill="#059669" r="3.2" />
</svg>