<svg height="430" viewBox="0 0 760 430" width="760" xmlns="http://www.w3.org/2000/svg">
	<text fill="#111827" font-family="Arial, sans-serif" font-size="20.0" font-weight="700" text-anchor="middle" x="380.0" y="30.0">Exercise Log - Weekly Volume</text>
	<text fill="#111827" font-family="Arial, sans-serif" font-size="13.0" text-anchor="middle" x="380.0" y="414.0">Week</text>
	<text fill="#111827" font-family="Arial, sans-serif" font-size="13.0" text-anchor="middle" transform="rotate(-90 18 215)" x="18.0" y="215.0">Total Reps</text>
	<line stroke="#374151" stroke-width="1.2" x1="72.0" x2="732.0" y1="364.0" y2="364.0" />
	<line stroke="#374151" stroke-width="1.2" x1="72.0" x2="72.0" y1="54.0" y2="364.0" />
	<line stroke="#e5e7eb" stroke-width="1" x1="72.0" x2="72.0" y1="54.0" y2="364.0" />
	<line stroke="#374151" stroke-width="1" x1="72.0" x2="72.0" y1="364.0" y2="369.0" />
	<text class="x-tick" fill="#111827" font-family="Arial, sans-serif" font-size="11.0" text-anchor="middle" x="72.0" y="385.0">0.0</text>
	<line stroke="#e5e7eb" stroke-width="1" x1="237.0" x2="237.0" y1="54.0" y2="364.0" />
	<line stroke="#374151" stroke-width="1" x1="237.0" x2="237.0" y1="364.0" y2="369.0" />
	<text class="x-tick" fill="#111827" font-family="Arial, sans-serif" font-size="11.0" text-anchor="middle" x="237.0" y="385.0">1.0</text>
	<line stroke="#e5e7eb" stroke-width="1" x1="402.0" x2="402.0" y1="54.0" y2="364.0" />
	<line stroke="#374151" stroke-width="1" x1="402.0" x2="402.0" y1="364.0" y2="369.0" />
	<text class="x-tick" fill="#111827" font-family="Arial, sans-serif" font-size="11.0" text-anchor="middle" x="402.0" y="385.0">2.0</text>
	<line stroke="#e5e7eb" stroke-width="1" x1="567.0" x2="567.0" y1="54.0" y2="364.0" />
	<line stroke="#374151" stroke-width="1" x1="567.0" x2="567.0" y1="364.0" y2="369.0" />
	<text class="x-tick" fill="#111827" font-family="Arial, sans-serif" font-size="11.0" text-anchor="middle" x="567.0" y="385.0">3.0</text>
	<line stroke="#e5e7eb" stroke-width="1" x1="732.0" x2="732.0" y1="54.0" y2="364.0" />
	<line stroke="#374151" stroke-width="1" x1="732.0" x2="732.0" y1="364.0" y2="369.0" />
	<text class="x-tick" fill="#111827" font-family="Arial, sans-serif" font-size="11.0" text-anchor="middle" x="732.0" y="385.0">4.0</text>
	<line stroke="#e5e7eb" stroke-width="1" x1="72.0" x2="732.0" y1="364.0" y2="364.0" />
	<line stroke="#374151" stroke-width="1" x1="67.0" x2="72.0" y1="364.0" y2="364.0" />
	<text class="y-tick" fill="#111827" font-family="Arial, sans-serif" font-size="11.0" text-anchor="end" x="62.0" y="368.0">0.0</text>
	<line stroke="#e5e7eb" stroke-width="1" x1="72.0" x2="732.0" y1="286.5" y2="286.5" />
	<line stroke="#374151" stroke-width="1" x1="67.0" x2="72.0" y1="286.5" y2="286.5" />
	<text class="y-tick" fill="#111827" font-family="Arial, sans-serif" font-size="11.0" text-anchor="end" x="62.0" y="290.5">38</text>
	<line stroke="#e5e7eb" stroke-width="1" x1="72.0" x2="732.0" y1="209.0" y2="209.0" />
	<line stroke="#374151" stroke-width="1" x1="67.0" x2="72.0" y1="209.0" y2="209.0" />
	<text class="y-tick" fill="#111827" font-family="Arial, sans-serif" font-size="11.0" text-anchor="end" x="62.0" y="213.0">76</text>
	<line stroke="#e5e7eb" stroke-width="1" x1="72.0" x2="732.0" y1="131.5" y2="131.5" />
	<line stroke="#374151" stroke-width="1" x1="67.0" x2="72.0" y1="131.5" y2="131.5" />
	<text class="y-tick" fill="#111827" font-family="Arial, sans-serif" font-size="11.0" text-anchor="end" x="62.0" y="135.5">114</text>
	<line stroke="#e5e7eb" stroke-width="1" x1="72.0" x2="732.0" y1="54.0" y2="54.0" />
	<line stroke="#374151" stroke-width="1" x1="67.0" x2="72.0" y1="54.0" y2="54.0" />
	<text class="y-tick" fill="#111827" font-family="Arial, sans-serif" font-size="11.0" text-anchor="end" x="62.0" y="58.0">152</text>
	<rect class="bar" fill="#2563eb" height="196.0" width="84.5" x="95.8" y="168.0" />
	<text class="bar-label" fill="#111827" font-family="Arial, sans-serif" font-size="11.0" text-anchor="middle" x="138.0" y="384.0">W1</text>
	<rect class="bar" fill="#2563eb" height="228.7" width="84.5" x="227.8" y="135.3" />
	<text class="bar-label" fill="#111827" font-family="Arial, sans-serif" font-size="11.0" text-anchor="middle" x="270.0" y="384.0">W2</text>
	<rect class="bar" fill="#2563eb" height="220.6" width="84.5" x="359.8" y="143.4" />
	<text class="bar-label" fill="#111827" font-family="Arial, sans-serif" font-size="11.0" text-anchor="middle" x="402.0" y="384.0">W3</text>
	<rect class="bar" fill="#2563eb" height="253.2" width="84.5" x="491.8" y="110.8" />
	<text class="bar-label" fill="#111827" font-family="Arial, sans-serif" font-size="11.0" text-anchor="middle" x="534.0" y="384.0">W4</text>
	<rect class="bar" fill="#2563eb" height="281.8" width="84.5" x="623.8" y="82.2" />
	<text class="bar-label" fill="#111827" font-family="Arial, sans-serif" font-size="11.0" text-anchor="middle" x="666.0" y="384.0">W5</text>
</svg>