<svg height="430" viewBox="0 0 760 430" width="760" xmlns="http://www.w3.org/2000/svg">
	<style type="text/css">
		<![CDATA[
			.axis-line {
				stroke: var(--svgplot-axis);
				stroke-width: 1.2;
			}
			.bar {
				fill: var(--svgplot-color);
			}
			.grid-line {
				stroke: var(--svgplot-grid);
				stroke-width: 1;
			}
			.line-marker {
				fill: var(--svgplot-color);
			}
			.line-series {
				fill: none;
				stroke: var(--svgplot-color);
				stroke-width: 2.4;
			}
			.svgplot-color-0 {
				--svgplot-color: #2563eb;
			}
			.svgplot-color-1 {
				--svgplot-color: #dc2626;
			}
			.svgplot-color-2 {
				--svgplot-color: #059669;
			}
			.tick-line {
				stroke: var(--svgplot-axis);
				stroke-width: 1;
			}
			:root {
				--svgplot-axis: #374151;
				--svgplot-background: #ffffff;
				--svgplot-grid: #e5e7eb;
				--svgplot-text: #111827;
			}
			svg {
				background: var(--svgplot-background);
			}
			text {
				fill: var(--svgplot-text);
				font-family: Arial, sans-serif;
			}
			@media (prefers-color-scheme: dark) {
				:root {
					--svgplot-axis: #9ca3af;
					--svgplot-background: #111827;
					--svgplot-grid: #374151;
					--svgplot-text: #f9fafb;
				}
			}
		]]>
	</style>
	<text font-size="20" font-weight="700" text-anchor="middle" x="380.0" y="30.0">Exercise Log - Working Weight</text>
	<text font-size="13" text-anchor="middle" x="380.0" y="414.0">Workout</text>
	<text font-size="13" text-anchor="middle" transform="rotate(-90 18 215)" x="18.0" y="215.0">Weight (lb)</text>
	<line class="axis-line" x1="72.0" x2="732.0" y1="364.0" y2="364.0" />
	<line class="axis-line" x1="72.0" x2="72.0" y1="54.0" y2="364.0" />
	<line class="grid-line" x1="72.0" x2="72.0" y1="54.0" y2="364.0" />
	<line class="tick-line" x1="72.0" x2="72.0" y1="364.0" y2="369.0" />
	<text class="x-tick" font-size="11" text-anchor="middle" x="72.0" y="385.0">0.9</text>
	<line class="grid-line" x1="237.0" x2="237.0" y1="54.0" y2="364.0" />
	<line class="tick-line" x1="237.0" x2="237.0" y1="364.0" y2="369.0" />
	<text class="x-tick" font-size="11" text-anchor="middle" x="237.0" y="385.0">2.0</text>
	<line class="grid-line" x1="402.0" x2="402.0" y1="54.0" y2="364.0" />
	<line class="tick-line" x1="402.0" x2="402.0" y1="364.0" y2="369.0" />
	<text class="x-tick" font-size="11" text-anchor="middle" x="402.0" y="385.0">3.0</text>
	<line class="grid-line" x1="567.0" x2="567.0" y1="54.0" y2="364.0" />
	<line class="tick-line" x1="567.0" x2="567.0" y1="364.0" y2="369.0" />
	<text class="x-tick" font-size="11" text-anchor="middle" x="567.0" y="385.0">4.0</text>
	<line class="grid-line" x1="732.0" x2="732.0" y1="54.0" y2="364.0" />
	<line class="tick-line" x1="732.0" x2="732.0" y1="364.0" y2="369.0" />
	<text class="x-tick" font-size="11" text-anchor="middle" x="732.0" y="385.0">5.1</text>
	<line class="grid-line" x1="72.0" x2="732.0" y1="364.0" y2="364.0" />
	<line class="tick-line" x1="67.0" x2="72.0" y1="364.0" y2="364.0" />
	<text class="y-tick" font-size="11" text-anchor="end" x="62.0" y="368.0">122</text>
	<line class="grid-line" x1="72.0" x2="732.0" y1="286.5" y2="286.5" />
	<line class="tick-line" x1="67.0" x2="72.0" y1="286.5" y2="286.5" />
	<text class="y-tick" font-size="11" text-anchor="end" x="62.0" y="290.5">169</text>
	<line class="grid-line" x1="72.0" x2="732.0" y1="209.0" y2="209.0" />
	<line class="tick-line" x1="67.0" x2="72.0" y1="209.0" y2="209.0" />
	<text class="y-tick" font-size="11" text-anchor="end" x="62.0" y="213.0">215</text>
	<line class="grid-line" x1="72.0" x2="732.0" y1="131.5" y2="131.5" />
	<line class="tick-line" x1="67.0" x2="72.0" y1="131.5" y2="131.5" />
	<text class="y-tick" font-size="11" text-anchor="end" x="62.0" y="135.5">261</text>
	<line class="grid-line" x1="72.0" x2="732.0" y1="54.0" y2="54.0" />
	<line class="tick-line" x1="67.0" x2="72.0" y1="54.0" y2="54.0" />
	<text class="y-tick" font-size="11" text-anchor="end" x="62.0" y="58.0">308</text>
	<path class="line-series svgplot-color-0" d="M 84.692308 259.107759 L 243.346154 242.405172 L 402.000000 225.702586 L 560.653846 209.000000 L 719.307692 192.297414" />
	<circle class="line-marker svgplot-color-0" cx="84.7" cy="259.1" r="3.2" />
	<circle class="line-marker svgplot-color-0" cx="243.3" cy="242.4" r="3.2" />
	<circle class="line-marker svgplot-color-0" cx="402.0" cy="225.7" r="3.2" />
	<circle class="line-marker svgplot-color-0" cx="560.7" cy="209.0" r="3.2" />
	<circle class="line-marker svgplot-color-0" cx="719.3" cy="192.3" r="3.2" />
	<path class="line-series svgplot-color-1" d="M 84.692308 342.620690 L 243.346154 334.269397 L 402.000000 325.918103 L 560.653846 317.566810 L 719.307692 309.215517" />
	<circle class="line-marker svgplot-color-1" cx="84.7" cy="342.6" r="3.2" />
	<circle class="line-marker svgplot-color-1" cx="243.3" cy="334.3" r="3.2" />
	<circle class="line-marker svgplot-color-1" cx="402.0" cy="325.9" r="3.2" />
	<circle class="line-marker svgplot-color-1" cx="560.7" cy="317.6" r="3.2" />
	<circle class="line-marker svgplot-color-1" cx="719.3" cy="309.2" r="3.2" />
	<path class="line-series svgplot-color-2" d="M 84.692308 192.297414 L 243.346154 158.892241 L 402.000000 142.189655 L 560.653846 108.784483 L 719.307692 75.379310" />
	<circle class="line-marker svgplot-color-2" cx="84.7" cy="192.3" r="3.2" />
	<circle class="line-marker svgplot-color-2" cx="243.3" cy="158.9" r="3.2" />
	<circle class="line-marker svgplot-color-2" cx="402.0" cy="142.2" r="3.2" />
	<circle class="line-marker svgplot-color-2" cx="560.7" cy="108.8" r="3.2" />
	<circle class="line-marker svgplot-color-2" cx="719.3" cy="75.4" r="3.2" />
</svg>