<svg height="430" viewBox="0 0 760 430" width="760" xmlns="http://www.w3.org/2000/svg">
	<style type="text/css">
		<![CDATA[
			.axis-line {
				stroke: var(--svgplot-axis);
				stroke-width: 1.2;
			}
			.bar {
				fill: var(--svgplot-color);
			}
			.grid-line {
				stroke: var(--svgplot-grid);
				stroke-width: 1;
			}
			.legend-label {
				fill: var(--svgplot-text);
			}
			.legend-line {
				stroke: var(--svgplot-color);
				stroke-linecap: round;
				stroke-width: 2.4;
			}
			.legend-marker {
				fill: var(--svgplot-color);
				stroke: none;
			}
			.legend-marker-outline {
				stroke: var(--svgplot-axis);
				stroke-width: 1;
			}
			.legend-title {
				fill: var(--svgplot-text);
			}
			.line-marker {
				fill: var(--svgplot-color);
			}
			.line-series {
				fill: none;
				stroke: var(--svgplot-color);
				stroke-width: 2.4;
			}
			.svgplot-color-0 {
				--svgplot-color: #2563eb;
			}
			.svgplot-color-1 {
				--svgplot-color: #dc2626;
			}
			.svgplot-color-2 {
				--svgplot-color: #059669;
			}
			.svgplot-legend-color-0 {
				--svgplot-color: #2563eb;
			}
			.svgplot-legend-color-1 {
				--svgplot-color: #dc2626;
			}
			.svgplot-legend-color-2 {
				--svgplot-color: #059669;
			}
			.tick-line {
				stroke: var(--svgplot-axis);
				stroke-width: 1;
			}
			:root {
				--svgplot-axis: #374151;
				--svgplot-background: #ffffff;
				--svgplot-grid: #e5e7eb;
				--svgplot-text: #111827;
			}
			svg {
				background: var(--svgplot-background);
			}
			text {
				fill: var(--svgplot-text);
				font-family: Arial, sans-serif;
			}
			@media (prefers-color-scheme: dark) {
				:root {
					--svgplot-axis: #9ca3af;
					--svgplot-background: #111827;
					--svgplot-grid: #374151;
					--svgplot-text: #f9fafb;
				}
			}
		]]>
	</style>
	<text font-size="20" font-weight="700" text-anchor="middle" x="380.0" y="30.0">Exercise Log - Working Weight</text>
	<text font-size="13" text-anchor="middle" x="380.0" y="414.0">Workout</text>
	<text font-size="13" text-anchor="middle" transform="rotate(-90 18 215)" x="18.0" y="215.0">Weight (lb)</text>
	<line class="axis-line" x1="72.0" x2="732.0" y1="308.0" y2="308.0" />
	<line class="axis-line" x1="72.0" x2="72.0" y1="54.0" y2="308.0" />
	<line class="grid-line" x1="72.0" x2="72.0" y1="54.0" y2="308.0" />
	<line class="tick-line" x1="72.0" x2="72.0" y1="308.0" y2="313.0" />
	<text class="x-tick" font-size="11" text-anchor="middle" x="72.0" y="329.0">0.9</text>
	<line class="grid-line" x1="237.0" x2="237.0" y1="54.0" y2="308.0" />
	<line class="tick-line" x1="237.0" x2="237.0" y1="308.0" y2="313.0" />
	<text class="x-tick" font-size="11" text-anchor="middle" x="237.0" y="329.0">2.0</text>
	<line class="grid-line" x1="402.0" x2="402.0" y1="54.0" y2="308.0" />
	<line class="tick-line" x1="402.0" x2="402.0" y1="308.0" y2="313.0" />
	<text class="x-tick" font-size="11" text-anchor="middle" x="402.0" y="329.0">3.0</text>
	<line class="grid-line" x1="567.0" x2="567.0" y1="54.0" y2="308.0" />
	<line class="tick-line" x1="567.0" x2="567.0" y1="308.0" y2="313.0" />
	<text class="x-tick" font-size="11" text-anchor="middle" x="567.0" y="329.0">4.0</text>
	<line class="grid-line" x1="732.0" x2="732.0" y1="54.0" y2="308.0" />
	<line class="tick-line" x1="732.0" x2="732.0" y1="308.0" y2="313.0" />
	<text class="x-tick" font-size="11" text-anchor="middle" x="732.0" y="329.0">5.1</text>
	<line class="grid-line" x1="72.0" x2="732.0" y1="308.3" y2="308.3" />
	<line class="tick-line" x1="67.0" x2="72.0" y1="308.3" y2="308.3" />
	<text class="y-tick" font-size="11" text-anchor="end" x="62.0" y="312.3">122</text>
	<line class="grid-line" x1="72.0" x2="732.0" y1="244.0" y2="244.0" />
	<line class="tick-line" x1="67.0" x2="72.0" y1="244.0" y2="244.0" />
	<text class="y-tick" font-size="11" text-anchor="end" x="62.0" y="248.0">169</text>
	<line class="grid-line" x1="72.0" x2="732.0" y1="179.6" y2="179.6" />
	<line class="tick-line" x1="67.0" x2="72.0" y1="179.6" y2="179.6" />
	<text class="y-tick" font-size="11" text-anchor="end" x="62.0" y="183.6">216</text>
	<line class="grid-line" x1="72.0" x2="732.0" y1="115.3" y2="115.3" />
	<line class="tick-line" x1="67.0" x2="72.0" y1="115.3" y2="115.3" />
	<text class="y-tick" font-size="11" text-anchor="end" x="62.0" y="119.3">263</text>
	<line class="grid-line" x1="72.0" x2="732.0" y1="53.7" y2="53.7" />
	<line class="tick-line" x1="67.0" x2="72.0" y1="53.7" y2="53.7" />
	<text class="y-tick" font-size="11" text-anchor="end" x="62.0" y="57.7">308</text>
	<path class="line-series svgplot-color-0" d="M 84.692308 222.056034 L 243.346154 208.370690 L 402.000000 194.685345 L 560.653846 181.000000 L 719.307692 167.314655" />
	<circle class="line-marker svgplot-color-0" cx="84.7" cy="222.1" r="3.2" />
	<circle class="line-marker svgplot-color-0" cx="243.3" cy="208.4" r="3.2" />
	<circle class="line-marker svgplot-color-0" cx="402.0" cy="194.7" r="3.2" />
	<circle class="line-marker svgplot-color-0" cx="560.7" cy="181.0" r="3.2" />
	<circle class="line-marker svgplot-color-0" cx="719.3" cy="167.3" r="3.2" />
	<path class="line-series svgplot-color-1" d="M 84.692308 290.482759 L 243.346154 283.640086 L 402.000000 276.797414 L 560.653846 269.954741 L 719.307692 263.112069" />
	<circle class="line-marker svgplot-color-1" cx="84.7" cy="290.5" r="3.2" />
	<circle class="line-marker svgplot-color-1" cx="243.3" cy="283.6" r="3.2" />
	<circle class="line-marker svgplot-color-1" cx="402.0" cy="276.8" r="3.2" />
	<circle class="line-marker svgplot-color-1" cx="560.7" cy="270.0" r="3.2" />
	<circle class="line-marker svgplot-color-1" cx="719.3" cy="263.1" r="3.2" />
	<path class="line-series svgplot-color-2" d="M 84.692308 167.314655 L 243.346154 139.943966 L 402.000000 126.258621 L 560.653846 98.887931 L 719.307692 71.517241" />
	<circle class="line-marker svgplot-color-2" cx="84.7" cy="167.3" r="3.2" />
	<circle class="line-marker svgplot-color-2" cx="243.3" cy="139.9" r="3.2" />
	<circle class="line-marker svgplot-color-2" cx="402.0" cy="126.3" r="3.2" />
	<circle class="line-marker svgplot-color-2" cx="560.7" cy="98.9" r="3.2" />
	<circle class="line-marker svgplot-color-2" cx="719.3" cy="71.5" r="3.2" />
	<line class="legend-line svgplot-legend-color-0" x1="72.0" x2="84.0" y1="355.0" y2="355.0" />
	<text class="legend-label" font-size="12" text-anchor="start" x="94.0" y="360.0">Squat</text>
	<line class="legend-line svgplot-legend-color-1" x1="146.8" x2="158.8" y1="355.0" y2="355.0" />
	<text class="legend-label" font-size="12" text-anchor="start" x="168.8" y="360.0">Bench</text>
	<line class="legend-line svgplot-legend-color-2" x1="221.6" x2="233.6" y1="355.0" y2="355.0" />
	<text class="legend-label" font-size="12" text-anchor="start" x="243.6" y="360.0">Deadlift</text>
</svg>
