<svg aria-label="Exercise Log - Weekly Volume" role="img" viewBox="-8.0 -57.6 743.9 438.0" xmlns="http://www.w3.org/2000/svg">
	<style type="text/css">
		<![CDATA[
			.bar {
				fill: var(--svgplot-color);
			}
			.svgplot-color-0 {
				--svgplot-color: #2563eb;
			}
			:root {
				--svgplot-axis: #374151;
				--svgplot-background: #ffffff;
				--svgplot-grid: #e5e7eb;
				--svgplot-text: #111827;
			}
			svg {
				background: var(--svgplot-background);
			}
			text {
				fill: var(--svgplot-text);
				font-family: Arial, sans-serif;
			}
			@media (prefers-color-scheme: dark) {
				:root {
					--svgplot-axis: #9ca3af;
					--svgplot-background: #111827;
					--svgplot-grid: #374151;
					--svgplot-text: #f9fafb;
				}
			}
		]]>
	</style>
	<g>
		<svg height="372.4" viewBox="4.7 46.8 727.9 372.4" width="727.9" x="0" y="0">
			<style type="text/css">
				<![CDATA[
					:root {
					}
				]]>
			</style>
			<text font-size="13" text-anchor="middle" x="380.0" y="414.0">Week</text>
			<text font-size="13" text-anchor="middle" transform="rotate(-90.0 18.0 215.0)" x="18.0" y="215.0">Total Reps</text>
			<line class="axis-line" stroke="var(--svgplot-axis)" stroke-width="1.2" x1="72.0" x2="732.0" y1="364.0" y2="364.0" />
			<line class="axis-line" stroke="var(--svgplot-axis)" stroke-width="1.2" x1="72.0" x2="72.0" y1="54.0" y2="364.0" />
			<line class="grid-line" stroke="var(--svgplot-grid)" stroke-width="1" x1="72.0" x2="732.0" y1="364.0" y2="364.0" />
			<line class="tick-line" stroke="var(--svgplot-axis)" stroke-width="1" x1="67.0" x2="72.0" y1="364.0" y2="364.0" />
			<text class="y-tick" font-size="11" text-anchor="end" x="62.0" y="368.0">0</text>
			<line class="grid-line" stroke="var(--svgplot-grid)" stroke-width="1" x1="72.0" x2="732.0" y1="286.5" y2="286.5" />
			<line class="tick-line" stroke="var(--svgplot-axis)" stroke-width="1" x1="67.0" x2="72.0" y1="286.5" y2="286.5" />
			<text class="y-tick" font-size="11" text-anchor="end" x="62.0" y="290.5">50</text>
			<line class="grid-line" stroke="var(--svgplot-grid)" stroke-width="1" x1="72.0" x2="732.0" y1="209.0" y2="209.0" />
			<line class="tick-line" stroke="var(--svgplot-axis)" stroke-width="1" x1="67.0" x2="72.0" y1="209.0" y2="209.0" />
			<text class="y-tick" font-size="11" text-anchor="end" x="62.0" y="213.0">100</text>
			<line class="grid-line" stroke="var(--svgplot-grid)" stroke-width="1" x1="72.0" x2="732.0" y1="131.5" y2="131.5" />
			<line class="tick-line" stroke="var(--svgplot-axis)" stroke-width="1" x1="67.0" x2="72.0" y1="131.5" y2="131.5" />
			<text class="y-tick" font-size="11" text-anchor="end" x="62.0" y="135.5">150</text>
			<line class="grid-line" stroke="var(--svgplot-grid)" stroke-width="1" x1="72.0" x2="732.0" y1="54.0" y2="54.0" />
			<line class="tick-line" stroke="var(--svgplot-axis)" stroke-width="1" x1="67.0" x2="72.0" y1="54.0" y2="54.0" />
			<text class="y-tick" font-size="11" text-anchor="end" x="62.0" y="58.0">200</text>
			<rect class="bar svgplot-color-0" height="148.8" width="84.5" x="95.8" y="215.2" />
			<text class="bar-label" font-size="11" text-anchor="middle" x="138.0" y="384.0">W1</text>
			<rect class="bar svgplot-color-0" height="173.6" width="84.5" x="227.8" y="190.4" />
			<text class="bar-label" font-size="11" text-anchor="middle" x="270.0" y="384.0">W2</text>
			<rect class="bar svgplot-color-0" height="167.4" width="84.5" x="359.8" y="196.6" />
			<text class="bar-label" font-size="11" text-anchor="middle" x="402.0" y="384.0">W3</text>
			<rect class="bar svgplot-color-0" height="192.2" width="84.5" x="491.8" y="171.8" />
			<text class="bar-label" font-size="11" text-anchor="middle" x="534.0" y="384.0">W4</text>
			<rect class="bar svgplot-color-0" height="213.9" width="84.5" x="623.8" y="150.1" />
			<text class="bar-label" font-size="11" text-anchor="middle" x="666.0" y="384.0">W5</text>
		</svg>
	</g>
	<text class="chart-title" font-size="20" font-weight="700" text-anchor="middle" transform="translate(364.0 -27.6)" x="0.0" y="0.0">Exercise Log - Weekly Volume</text>
</svg>