<svg aria-label="Training - Working Weight" role="img" viewBox="-8.0 -57.6 840.3 438.0" xmlns="http://www.w3.org/2000/svg">
	<style type="text/css">
		<![CDATA[
			.legend-label {
				fill: var(--svgplot-text);
			}
			.legend-marker {
				fill: var(--svgplot-color);
			}
			.legend-title {
				fill: var(--svgplot-text);
			}
			.line-marker {
				fill: var(--svgplot-color);
			}
			.line-series {
				fill: none;
			}
			.svgplot-color-0 {
				--svgplot-color: #2563eb;
			}
			.svgplot-color-1 {
				--svgplot-color: #dc2626;
			}
			.svgplot-color-2 {
				--svgplot-color: #059669;
			}
			:root {
				--svgplot-axis: #374151;
				--svgplot-background: #ffffff;
				--svgplot-grid: #e5e7eb;
				--svgplot-text: #111827;
			}
			svg {
				background: var(--svgplot-background);
			}
			text {
				fill: var(--svgplot-text);
				font-family: Arial, sans-serif;
			}
			@media (prefers-color-scheme: dark) {
				:root {
					--svgplot-axis: #9ca3af;
					--svgplot-background: #111827;
					--svgplot-grid: #374151;
					--svgplot-text: #f9fafb;
				}
			}
		]]>
	</style>
	<defs>
		<symbol id="svgplot-line-marker" viewBox="0 0 6.4 6.4">
			<circle cx="3.2" cy="3.2" r="3.2" />
		</symbol>
	</defs>
	<g>
		<svg height="372.4" viewBox="4.7 46.8 736.4 372.4" width="736.4" x="0" y="0">
			<style type="text/css">
				<![CDATA[
					:root {
					}
				]]>
			</style>
			<text font-size="13" text-anchor="middle" x="380.0" y="414.0">Workout</text>
			<text font-size="13" text-anchor="middle" transform="rotate(-90.0 18.0 215.0)" x="18.0" y="215.0">Weight (lb)</text>
			<line class="axis-line" stroke="var(--svgplot-axis)" stroke-width="1.2" x1="72.0" x2="732.0" y1="364.0" y2="364.0" />
			<line class="axis-line" stroke="var(--svgplot-axis)" stroke-width="1.2" x1="72.0" x2="72.0" y1="54.0" y2="364.0" />
			<line class="grid-line" stroke="var(--svgplot-grid)" stroke-width="1" x1="72.0" x2="72.0" y1="54.0" y2="364.0" />
			<line class="tick-line" stroke="var(--svgplot-axis)" stroke-width="1" x1="72.0" x2="72.0" y1="364.0" y2="369.0" />
			<text class="x-tick" font-size="11" text-anchor="middle" x="72.0" y="385.0">0.9</text>
			<line class="grid-line" stroke="var(--svgplot-grid)" stroke-width="1" x1="237.0" x2="237.0" y1="54.0" y2="364.0" />
			<line class="tick-line" stroke="var(--svgplot-axis)" stroke-width="1" x1="237.0" x2="237.0" y1="364.0" y2="369.0" />
			<text class="x-tick" font-size="11" text-anchor="middle" x="237.0" y="385.0">2.0</text>
			<line class="grid-line" stroke="var(--svgplot-grid)" stroke-width="1" x1="402.0" x2="402.0" y1="54.0" y2="364.0" />
			<line class="tick-line" stroke="var(--svgplot-axis)" stroke-width="1" x1="402.0" x2="402.0" y1="364.0" y2="369.0" />
			<text class="x-tick" font-size="11" text-anchor="middle" x="402.0" y="385.0">3.0</text>
			<line class="grid-line" stroke="var(--svgplot-grid)" stroke-width="1" x1="567.0" x2="567.0" y1="54.0" y2="364.0" />
			<line class="tick-line" stroke="var(--svgplot-axis)" stroke-width="1" x1="567.0" x2="567.0" y1="364.0" y2="369.0" />
			<text class="x-tick" font-size="11" text-anchor="middle" x="567.0" y="385.0">4.0</text>
			<line class="grid-line" stroke="var(--svgplot-grid)" stroke-width="1" x1="732.0" x2="732.0" y1="54.0" y2="364.0" />
			<line class="tick-line" stroke="var(--svgplot-axis)" stroke-width="1" x1="732.0" x2="732.0" y1="364.0" y2="369.0" />
			<text class="x-tick" font-size="11" text-anchor="middle" x="732.0" y="385.0">5.1</text>
			<line class="grid-line" stroke="var(--svgplot-grid)" stroke-width="1" x1="72.0" x2="732.0" y1="364.0" y2="364.0" />
			<line class="tick-line" stroke="var(--svgplot-axis)" stroke-width="1" x1="67.0" x2="72.0" y1="364.0" y2="364.0" />
			<text class="y-tick" font-size="11" text-anchor="end" x="62.0" y="368.0">100</text>
			<line class="grid-line" stroke="var(--svgplot-grid)" stroke-width="1" x1="72.0" x2="732.0" y1="302.0" y2="302.0" />
			<line class="tick-line" stroke="var(--svgplot-axis)" stroke-width="1" x1="67.0" x2="72.0" y1="302.0" y2="302.0" />
			<text class="y-tick" font-size="11" text-anchor="end" x="62.0" y="306.0">150</text>
			<line class="grid-line" stroke="var(--svgplot-grid)" stroke-width="1" x1="72.0" x2="732.0" y1="240.0" y2="240.0" />
			<line class="tick-line" stroke="var(--svgplot-axis)" stroke-width="1" x1="67.0" x2="72.0" y1="240.0" y2="240.0" />
			<text class="y-tick" font-size="11" text-anchor="end" x="62.0" y="244.0">200</text>
			<line class="grid-line" stroke="var(--svgplot-grid)" stroke-width="1" x1="72.0" x2="732.0" y1="178.0" y2="178.0" />
			<line class="tick-line" stroke="var(--svgplot-axis)" stroke-width="1" x1="67.0" x2="72.0" y1="178.0" y2="178.0" />
			<text class="y-tick" font-size="11" text-anchor="end" x="62.0" y="182.0">250</text>
			<line class="grid-line" stroke="var(--svgplot-grid)" stroke-width="1" x1="72.0" x2="732.0" y1="116.0" y2="116.0" />
			<line class="tick-line" stroke="var(--svgplot-axis)" stroke-width="1" x1="67.0" x2="72.0" y1="116.0" y2="116.0" />
			<text class="y-tick" font-size="11" text-anchor="end" x="62.0" y="120.0">300</text>
			<line class="grid-line" stroke="var(--svgplot-grid)" stroke-width="1" x1="72.0" x2="732.0" y1="54.0" y2="54.0" />
			<line class="tick-line" stroke="var(--svgplot-axis)" stroke-width="1" x1="67.0" x2="72.0" y1="54.0" y2="54.0" />
			<text class="y-tick" font-size="11" text-anchor="end" x="62.0" y="58.0">350</text>
			<path class="line-series svgplot-color-0" d="M 84.692308 258.600000 L 243.346154 246.200000 L 402.000000 233.800000 L 560.653846 221.400000 L 719.307692 209.000000" fill="none" stroke="var(--svgplot-color)" stroke-width="2.4" />
			<use class="line-marker svgplot-color-0" height="6.4" href="#svgplot-line-marker" width="6.4" x="81.5" y="255.4" />
			<use class="line-marker svgplot-color-0" height="6.4" href="#svgplot-line-marker" width="6.4" x="240.1" y="243.0" />
			<use class="line-marker svgplot-color-0" height="6.4" href="#svgplot-line-marker" width="6.4" x="398.8" y="230.6" />
			<use class="line-marker svgplot-color-0" height="6.4" href="#svgplot-line-marker" width="6.4" x="557.5" y="218.2" />
			<use class="line-marker svgplot-color-0" height="6.4" href="#svgplot-line-marker" width="6.4" x="716.1" y="205.8" />
			<path class="line-series svgplot-color-1" d="M 84.692308 320.600000 L 243.346154 314.400000 L 402.000000 308.200000 L 560.653846 302.000000 L 719.307692 295.800000" fill="none" stroke="var(--svgplot-color)" stroke-width="2.4" />
			<use class="line-marker svgplot-color-1" height="6.4" href="#svgplot-line-marker" width="6.4" x="81.5" y="317.4" />
			<use class="line-marker svgplot-color-1" height="6.4" href="#svgplot-line-marker" width="6.4" x="240.1" y="311.2" />
			<use class="line-marker svgplot-color-1" height="6.4" href="#svgplot-line-marker" width="6.4" x="398.8" y="305.0" />
			<use class="line-marker svgplot-color-1" height="6.4" href="#svgplot-line-marker" width="6.4" x="557.5" y="298.8" />
			<use class="line-marker svgplot-color-1" height="6.4" href="#svgplot-line-marker" width="6.4" x="716.1" y="292.6" />
			<path class="line-series svgplot-color-2" d="M 84.692308 209.000000 L 243.346154 184.200000 L 402.000000 171.800000 L 560.653846 147.000000 L 719.307692 122.200000" fill="none" stroke="var(--svgplot-color)" stroke-width="2.4" />
			<use class="line-marker svgplot-color-2" height="6.4" href="#svgplot-line-marker" width="6.4" x="81.5" y="205.8" />
			<use class="line-marker svgplot-color-2" height="6.4" href="#svgplot-line-marker" width="6.4" x="240.1" y="181.0" />
			<use class="line-marker svgplot-color-2" height="6.4" href="#svgplot-line-marker" width="6.4" x="398.8" y="168.6" />
			<use class="line-marker svgplot-color-2" height="6.4" href="#svgplot-line-marker" width="6.4" x="557.5" y="143.8" />
			<use class="line-marker svgplot-color-2" height="6.4" href="#svgplot-line-marker" width="6.4" x="716.1" y="119.0" />
		</svg>
		<line class="legend-line svgplot-color-0" stroke="var(--svgplot-color)" stroke-linecap="round" stroke-width="2.4" x1="746.4" x2="758.4" y1="9.0" y2="9.0" />
		<text class="legend-label" font-size="12" text-anchor="start" x="768.4" y="14.0">Squat</text>
		<line class="legend-line svgplot-color-1" stroke="var(--svgplot-color)" stroke-linecap="round" stroke-width="2.4" x1="746.4" x2="758.4" y1="27.0" y2="27.0" />
		<text class="legend-label" font-size="12" text-anchor="start" x="768.4" y="32.0">Bench</text>
		<line class="legend-line svgplot-color-2" stroke="var(--svgplot-color)" stroke-linecap="round" stroke-width="2.4" x1="746.4" x2="758.4" y1="45.0" y2="45.0" />
		<text class="legend-label" font-size="12" text-anchor="start" x="768.4" y="50.0">Deadlift</text>
	</g>
	<text class="chart-title" font-size="20" font-weight="700" text-anchor="middle" transform="translate(412.0 -27.6)" x="0.0" y="0.0">Training - Working Weight</text>
</svg>